<svg id="Capa_1" enable-background="new 0 0 512 512" height="512" viewBox="0 0 512 512" width="512" xmlns="http://www.w3.org/2000/svg"><g><path d="m386.605 4.395c-5.859-5.859-15.352-5.859-21.211 0l-109.394 109.394-109.395-109.394c-5.859-5.859-15.352-5.859-21.211 0s-5.859 15.352 0 21.211l120 120c2.93 2.93 6.768 4.395 10.605 4.395s7.676-1.465 10.605-4.395l120-120c5.861-5.86 5.861-15.352.001-21.211z" fill="#d5e8fe"/><path d="m266.605 145.605 120-120c5.859-5.859 5.859-15.352 0-21.211s-15.352-5.859-21.211 0l-109.394 109.395v36.211c3.838 0 7.676-1.465 10.605-4.395z" fill="#b5dbff"/><g id="TV_2_"><g><path d="m467 512h-422c-24.814 0-45-20.186-45-45v-302c0-24.814 20.186-45 45-45h422c24.814 0 45 20.186 45 45v302c0 24.814-20.186 45-45 45z" fill="#5c6699"/></g></g><g><path d="m467 120h-211v392h211c24.814 0 45-20.186 45-45v-302c0-24.814-20.186-45-45-45z" fill="#404a80"/></g><g><path d="m437 452h-362c-8.291 0-15-6.709-15-15v-242c0-8.291 6.709-15 15-15h362c8.291 0 15 6.709 15 15v242c0 8.291-6.709 15-15 15z" fill="#edf5ff"/></g><path d="m437 180h-181v272h181c8.291 0 15-6.709 15-15v-242c0-8.291-6.709-15-15-15z" fill="#d5e8fe"/><g><path d="m218.91 389.228c-4.863-2.607-7.91-7.69-7.91-13.228v-120c0-5.537 3.047-10.62 7.91-13.228s10.781-2.314 15.41.747l90 60c4.16 2.783 6.68 7.471 6.68 12.48s-2.52 9.697-6.68 12.48l-90 60c-4.671 3.098-10.562 3.332-15.41.749z" fill="#ff7b4a"/></g><path d="m256 257.972v116.056l68.32-45.547c4.16-2.783 6.68-7.471 6.68-12.48s-2.52-9.697-6.68-12.48z" fill="#ff435b"/></g></svg>